<mxfile host="Electron" modified="2023-09-18T09:52:55.273Z" agent="Mozilla/5.0 (Windows NT 10.0; Win64; x64) AppleWebKit/537.36 (KHTML, like Gecko) draw.io/21.7.5 Chrome/114.0.5735.289 Electron/25.8.1 Safari/537.36" version="21.7.5" etag="Ht7NSr8TJZjtb74VkigC" type="device">
  <diagram id="78AnT_VCohI3Z3YUCIBv" name="Page-1">
    <mxGraphModel dx="611" dy="1123" grid="1" gridSize="10" guides="1" tooltips="1" connect="1" arrows="1" fold="1" page="1" pageScale="1" pageWidth="850" pageHeight="1100" math="0" shadow="0">
      <root>
        <mxCell id="0" />
        <mxCell id="1" parent="0" />
        <mxCell id="-Dib-UJXwIFZfKIYvQwU-1" value="User" style="rounded=1;whiteSpace=wrap;html=1;fillColor=#ffe6cc;strokeColor=#d79b00;fontSize=18;" vertex="1" parent="1">
          <mxGeometry x="294.16999999999996" y="240" width="80" height="40" as="geometry" />
        </mxCell>
        <mxCell id="-Dib-UJXwIFZfKIYvQwU-2" value="name" style="ellipse;whiteSpace=wrap;html=1;" vertex="1" parent="1">
          <mxGeometry x="180" y="210" width="73.33" height="40" as="geometry" />
        </mxCell>
        <mxCell id="-Dib-UJXwIFZfKIYvQwU-3" value="phone" style="ellipse;whiteSpace=wrap;html=1;" vertex="1" parent="1">
          <mxGeometry x="230" y="170" width="73.33" height="40" as="geometry" />
        </mxCell>
        <mxCell id="-Dib-UJXwIFZfKIYvQwU-4" value="address" style="ellipse;whiteSpace=wrap;html=1;" vertex="1" parent="1">
          <mxGeometry x="310" y="150" width="73.33" height="40" as="geometry" />
        </mxCell>
        <mxCell id="-Dib-UJXwIFZfKIYvQwU-5" value="email" style="ellipse;whiteSpace=wrap;html=1;fillColor=#ffe6cc;strokeColor=#d79b00;" vertex="1" parent="1">
          <mxGeometry x="399.87" y="170" width="73.33" height="40" as="geometry" />
        </mxCell>
        <mxCell id="-Dib-UJXwIFZfKIYvQwU-7" value="password" style="ellipse;whiteSpace=wrap;html=1;" vertex="1" parent="1">
          <mxGeometry x="419.87" y="220" width="73.33" height="40" as="geometry" />
        </mxCell>
        <mxCell id="-Dib-UJXwIFZfKIYvQwU-8" value="" style="endArrow=classic;html=1;rounded=0;entryX=0;entryY=0.5;entryDx=0;entryDy=0;exitX=1.027;exitY=0.407;exitDx=0;exitDy=0;exitPerimeter=0;" edge="1" parent="1" source="-Dib-UJXwIFZfKIYvQwU-1" target="-Dib-UJXwIFZfKIYvQwU-7">
          <mxGeometry width="50" height="50" relative="1" as="geometry">
            <mxPoint x="390" y="258.56000000000006" as="sourcePoint" />
            <mxPoint x="439.87" y="280" as="targetPoint" />
          </mxGeometry>
        </mxCell>
        <mxCell id="-Dib-UJXwIFZfKIYvQwU-9" value="uid" style="ellipse;whiteSpace=wrap;html=1;fillColor=#ffe6cc;strokeColor=#d79b00;fontStyle=5" vertex="1" parent="1">
          <mxGeometry x="180" y="260" width="73.33" height="40" as="geometry" />
        </mxCell>
        <mxCell id="-Dib-UJXwIFZfKIYvQwU-10" value="" style="endArrow=classic;html=1;rounded=0;entryX=0;entryY=1;entryDx=0;entryDy=0;exitX=1;exitY=0;exitDx=0;exitDy=0;" edge="1" parent="1" source="-Dib-UJXwIFZfKIYvQwU-1" target="-Dib-UJXwIFZfKIYvQwU-5">
          <mxGeometry width="50" height="50" relative="1" as="geometry">
            <mxPoint x="382" y="266" as="sourcePoint" />
            <mxPoint x="430" y="250" as="targetPoint" />
          </mxGeometry>
        </mxCell>
        <mxCell id="-Dib-UJXwIFZfKIYvQwU-11" value="" style="endArrow=classic;html=1;rounded=0;entryX=0.5;entryY=1;entryDx=0;entryDy=0;exitX=0.75;exitY=0;exitDx=0;exitDy=0;" edge="1" parent="1" source="-Dib-UJXwIFZfKIYvQwU-1" target="-Dib-UJXwIFZfKIYvQwU-4">
          <mxGeometry width="50" height="50" relative="1" as="geometry">
            <mxPoint x="380" y="250" as="sourcePoint" />
            <mxPoint x="421" y="214" as="targetPoint" />
          </mxGeometry>
        </mxCell>
        <mxCell id="-Dib-UJXwIFZfKIYvQwU-12" value="" style="endArrow=classic;html=1;rounded=0;entryX=1;entryY=1;entryDx=0;entryDy=0;exitX=0.305;exitY=0.036;exitDx=0;exitDy=0;exitPerimeter=0;" edge="1" parent="1" source="-Dib-UJXwIFZfKIYvQwU-1" target="-Dib-UJXwIFZfKIYvQwU-3">
          <mxGeometry width="50" height="50" relative="1" as="geometry">
            <mxPoint x="360" y="250" as="sourcePoint" />
            <mxPoint x="357" y="200" as="targetPoint" />
          </mxGeometry>
        </mxCell>
        <mxCell id="-Dib-UJXwIFZfKIYvQwU-13" value="" style="endArrow=classic;html=1;rounded=0;entryX=1;entryY=0.5;entryDx=0;entryDy=0;exitX=0;exitY=0;exitDx=0;exitDy=0;" edge="1" parent="1" source="-Dib-UJXwIFZfKIYvQwU-1" target="-Dib-UJXwIFZfKIYvQwU-2">
          <mxGeometry width="50" height="50" relative="1" as="geometry">
            <mxPoint x="324" y="251" as="sourcePoint" />
            <mxPoint x="303" y="214" as="targetPoint" />
          </mxGeometry>
        </mxCell>
        <mxCell id="-Dib-UJXwIFZfKIYvQwU-14" value="" style="endArrow=classic;html=1;rounded=0;entryX=1;entryY=0.5;entryDx=0;entryDy=0;exitX=0;exitY=0.75;exitDx=0;exitDy=0;" edge="1" parent="1" source="-Dib-UJXwIFZfKIYvQwU-1" target="-Dib-UJXwIFZfKIYvQwU-9">
          <mxGeometry width="50" height="50" relative="1" as="geometry">
            <mxPoint x="300" y="250" as="sourcePoint" />
            <mxPoint x="263" y="240" as="targetPoint" />
          </mxGeometry>
        </mxCell>
        <mxCell id="-Dib-UJXwIFZfKIYvQwU-15" value="Product" style="rounded=1;whiteSpace=wrap;html=1;fillColor=#d5e8d4;strokeColor=#82b366;fontSize=18;" vertex="1" parent="1">
          <mxGeometry x="293.34" y="740" width="80" height="40" as="geometry" />
        </mxCell>
        <mxCell id="-Dib-UJXwIFZfKIYvQwU-28" value="role" style="ellipse;whiteSpace=wrap;html=1;fillColor=#e1d5e7;strokeColor=#9673a6;" vertex="1" parent="1">
          <mxGeometry x="419.87" y="270" width="73.33" height="40" as="geometry" />
        </mxCell>
        <mxCell id="-Dib-UJXwIFZfKIYvQwU-29" value="" style="endArrow=classic;html=1;rounded=0;entryX=0;entryY=0.5;entryDx=0;entryDy=0;exitX=1;exitY=1;exitDx=0;exitDy=0;" edge="1" parent="1" source="-Dib-UJXwIFZfKIYvQwU-1" target="-Dib-UJXwIFZfKIYvQwU-28">
          <mxGeometry width="50" height="50" relative="1" as="geometry">
            <mxPoint x="382" y="266" as="sourcePoint" />
            <mxPoint x="430" y="250" as="targetPoint" />
          </mxGeometry>
        </mxCell>
        <mxCell id="-Dib-UJXwIFZfKIYvQwU-30" value="owner" style="ellipse;whiteSpace=wrap;html=1;fillColor=#e1d5e7;strokeColor=#9673a6;" vertex="1" parent="1">
          <mxGeometry x="520" y="240" width="73.33" height="40" as="geometry" />
        </mxCell>
        <mxCell id="-Dib-UJXwIFZfKIYvQwU-31" value="customer" style="ellipse;whiteSpace=wrap;html=1;fillColor=#e1d5e7;strokeColor=#9673a6;" vertex="1" parent="1">
          <mxGeometry x="520" y="300" width="73.33" height="40" as="geometry" />
        </mxCell>
        <mxCell id="-Dib-UJXwIFZfKIYvQwU-32" value="" style="endArrow=classic;html=1;rounded=0;entryX=0;entryY=0.5;entryDx=0;entryDy=0;exitX=1;exitY=0.5;exitDx=0;exitDy=0;" edge="1" parent="1" source="-Dib-UJXwIFZfKIYvQwU-28" target="-Dib-UJXwIFZfKIYvQwU-30">
          <mxGeometry width="50" height="50" relative="1" as="geometry">
            <mxPoint x="380" y="290" as="sourcePoint" />
            <mxPoint x="430" y="300" as="targetPoint" />
          </mxGeometry>
        </mxCell>
        <mxCell id="-Dib-UJXwIFZfKIYvQwU-33" value="" style="endArrow=classic;html=1;rounded=0;entryX=0;entryY=0.5;entryDx=0;entryDy=0;exitX=1;exitY=0.5;exitDx=0;exitDy=0;" edge="1" parent="1" source="-Dib-UJXwIFZfKIYvQwU-28" target="-Dib-UJXwIFZfKIYvQwU-31">
          <mxGeometry width="50" height="50" relative="1" as="geometry">
            <mxPoint x="503" y="300" as="sourcePoint" />
            <mxPoint x="530" y="270" as="targetPoint" />
          </mxGeometry>
        </mxCell>
        <mxCell id="-Dib-UJXwIFZfKIYvQwU-35" value="pid" style="ellipse;whiteSpace=wrap;html=1;fillColor=#d5e8d4;strokeColor=#82b366;fontStyle=5;" vertex="1" parent="1">
          <mxGeometry x="170" y="800" width="73.33" height="40" as="geometry" />
        </mxCell>
        <mxCell id="-Dib-UJXwIFZfKIYvQwU-39" value="" style="endArrow=classic;html=1;rounded=0;entryX=1;entryY=0.5;entryDx=0;entryDy=0;exitX=0;exitY=0.75;exitDx=0;exitDy=0;" edge="1" parent="1" source="-Dib-UJXwIFZfKIYvQwU-15" target="-Dib-UJXwIFZfKIYvQwU-35">
          <mxGeometry width="50" height="50" relative="1" as="geometry">
            <mxPoint x="303.34000000000003" y="420" as="sourcePoint" />
            <mxPoint x="266.34000000000003" y="430" as="targetPoint" />
          </mxGeometry>
        </mxCell>
        <mxCell id="-Dib-UJXwIFZfKIYvQwU-40" value="name" style="ellipse;whiteSpace=wrap;html=1;" vertex="1" parent="1">
          <mxGeometry x="210" y="840" width="73.33" height="40" as="geometry" />
        </mxCell>
        <mxCell id="-Dib-UJXwIFZfKIYvQwU-41" value="" style="endArrow=classic;html=1;rounded=0;entryX=0.785;entryY=0.1;entryDx=0;entryDy=0;exitX=0.071;exitY=1.021;exitDx=0;exitDy=0;exitPerimeter=0;entryPerimeter=0;" edge="1" parent="1" source="-Dib-UJXwIFZfKIYvQwU-15" target="-Dib-UJXwIFZfKIYvQwU-40">
          <mxGeometry width="50" height="50" relative="1" as="geometry">
            <mxPoint x="303.34000000000003" y="790" as="sourcePoint" />
            <mxPoint x="276.34000000000003" y="806" as="targetPoint" />
          </mxGeometry>
        </mxCell>
        <mxCell id="-Dib-UJXwIFZfKIYvQwU-43" value="" style="endArrow=classic;html=1;rounded=0;entryX=0.5;entryY=0;entryDx=0;entryDy=0;exitX=0.5;exitY=1;exitDx=0;exitDy=0;" edge="1" target="-Dib-UJXwIFZfKIYvQwU-44" parent="1" source="-Dib-UJXwIFZfKIYvQwU-15">
          <mxGeometry width="50" height="50" relative="1" as="geometry">
            <mxPoint x="323.34000000000003" y="750" as="sourcePoint" />
            <mxPoint x="316.34000000000003" y="756" as="targetPoint" />
          </mxGeometry>
        </mxCell>
        <mxCell id="-Dib-UJXwIFZfKIYvQwU-44" value="price" style="ellipse;whiteSpace=wrap;html=1;" vertex="1" parent="1">
          <mxGeometry x="293.34000000000003" y="840" width="73.33" height="40" as="geometry" />
        </mxCell>
        <mxCell id="-Dib-UJXwIFZfKIYvQwU-45" value="imgURL" style="ellipse;whiteSpace=wrap;html=1;" vertex="1" parent="1">
          <mxGeometry x="383.33000000000004" y="840" width="73.33" height="40" as="geometry" />
        </mxCell>
        <mxCell id="-Dib-UJXwIFZfKIYvQwU-46" value="" style="endArrow=classic;html=1;rounded=0;entryX=0.097;entryY=0.2;entryDx=0;entryDy=0;exitX=0.75;exitY=1;exitDx=0;exitDy=0;entryPerimeter=0;" edge="1" parent="1" source="-Dib-UJXwIFZfKIYvQwU-15" target="-Dib-UJXwIFZfKIYvQwU-45">
          <mxGeometry width="50" height="50" relative="1" as="geometry">
            <mxPoint x="333.34000000000003" y="760" as="sourcePoint" />
            <mxPoint x="295.34000000000003" y="720" as="targetPoint" />
          </mxGeometry>
        </mxCell>
        <mxCell id="-Dib-UJXwIFZfKIYvQwU-47" value="description" style="ellipse;whiteSpace=wrap;html=1;" vertex="1" parent="1">
          <mxGeometry x="419.87" y="790" width="73.33" height="40" as="geometry" />
        </mxCell>
        <mxCell id="-Dib-UJXwIFZfKIYvQwU-48" value="" style="endArrow=classic;html=1;rounded=0;entryX=-0.004;entryY=0.393;entryDx=0;entryDy=0;entryPerimeter=0;exitX=1;exitY=0.75;exitDx=0;exitDy=0;" edge="1" parent="1" source="-Dib-UJXwIFZfKIYvQwU-15" target="-Dib-UJXwIFZfKIYvQwU-47">
          <mxGeometry width="50" height="50" relative="1" as="geometry">
            <mxPoint x="373.34000000000003" y="750" as="sourcePoint" />
            <mxPoint x="360.34000000000003" y="710" as="targetPoint" />
          </mxGeometry>
        </mxCell>
        <mxCell id="-Dib-UJXwIFZfKIYvQwU-50" value="Transaction" style="rounded=1;whiteSpace=wrap;html=1;fillColor=#f8cecc;strokeColor=#b85450;fontSize=18;" vertex="1" parent="1">
          <mxGeometry x="280.84000000000003" y="500" width="106.66" height="40" as="geometry" />
        </mxCell>
        <mxCell id="-Dib-UJXwIFZfKIYvQwU-52" value="tid" style="ellipse;whiteSpace=wrap;html=1;fillColor=#f8cecc;strokeColor=#b85450;" vertex="1" parent="1">
          <mxGeometry x="446.67" y="475" width="73.33" height="40" as="geometry" />
        </mxCell>
        <mxCell id="-Dib-UJXwIFZfKIYvQwU-54" value="amount" style="ellipse;whiteSpace=wrap;html=1;" vertex="1" parent="1">
          <mxGeometry x="409.99999999999994" y="584" width="73.33" height="40" as="geometry" />
        </mxCell>
        <mxCell id="-Dib-UJXwIFZfKIYvQwU-55" value="Order" style="rhombus;whiteSpace=wrap;html=1;" vertex="1" parent="1">
          <mxGeometry x="281.67" y="610" width="105" height="60" as="geometry" />
        </mxCell>
        <mxCell id="-Dib-UJXwIFZfKIYvQwU-56" value="size" style="ellipse;whiteSpace=wrap;html=1;" vertex="1" parent="1">
          <mxGeometry x="429.99999999999994" y="624" width="73.33" height="40" as="geometry" />
        </mxCell>
        <mxCell id="-Dib-UJXwIFZfKIYvQwU-57" value="" style="endArrow=classic;html=1;rounded=0;entryX=0.041;entryY=0.793;entryDx=0;entryDy=0;exitX=1;exitY=0.5;exitDx=0;exitDy=0;entryPerimeter=0;" edge="1" parent="1" target="-Dib-UJXwIFZfKIYvQwU-54">
          <mxGeometry width="50" height="50" relative="1" as="geometry">
            <mxPoint x="386.6700000000001" y="641" as="sourcePoint" />
            <mxPoint x="530" y="331" as="targetPoint" />
          </mxGeometry>
        </mxCell>
        <mxCell id="-Dib-UJXwIFZfKIYvQwU-58" value="" style="endArrow=classic;html=1;rounded=0;entryX=0;entryY=0.5;entryDx=0;entryDy=0;exitX=1;exitY=0.5;exitDx=0;exitDy=0;" edge="1" parent="1" target="-Dib-UJXwIFZfKIYvQwU-56">
          <mxGeometry width="50" height="50" relative="1" as="geometry">
            <mxPoint x="386.6700000000001" y="641" as="sourcePoint" />
            <mxPoint x="430" y="631" as="targetPoint" />
          </mxGeometry>
        </mxCell>
        <mxCell id="-Dib-UJXwIFZfKIYvQwU-59" value="status" style="ellipse;whiteSpace=wrap;html=1;" vertex="1" parent="1">
          <mxGeometry x="446.67" y="525" width="73.33" height="40" as="geometry" />
        </mxCell>
        <mxCell id="-Dib-UJXwIFZfKIYvQwU-60" value="Request" style="rhombus;whiteSpace=wrap;html=1;" vertex="1" parent="1">
          <mxGeometry x="281.67" y="360" width="105" height="60" as="geometry" />
        </mxCell>
        <mxCell id="-Dib-UJXwIFZfKIYvQwU-62" value="" style="endArrow=none;html=1;rounded=0;entryX=0.5;entryY=0;entryDx=0;entryDy=0;exitX=0.5;exitY=1;exitDx=0;exitDy=0;startArrow=ERmany;startFill=0;endFill=0;" edge="1" parent="1" source="-Dib-UJXwIFZfKIYvQwU-1" target="-Dib-UJXwIFZfKIYvQwU-60">
          <mxGeometry width="50" height="50" relative="1" as="geometry">
            <mxPoint x="364" y="250" as="sourcePoint" />
            <mxPoint x="357" y="200" as="targetPoint" />
          </mxGeometry>
        </mxCell>
        <mxCell id="-Dib-UJXwIFZfKIYvQwU-63" value="" style="endArrow=none;html=1;rounded=0;entryX=0.5;entryY=0;entryDx=0;entryDy=0;exitX=0.5;exitY=1;exitDx=0;exitDy=0;endFill=0;" edge="1" parent="1" source="-Dib-UJXwIFZfKIYvQwU-60" target="-Dib-UJXwIFZfKIYvQwU-50">
          <mxGeometry width="50" height="50" relative="1" as="geometry">
            <mxPoint x="344" y="290" as="sourcePoint" />
            <mxPoint x="345" y="365" as="targetPoint" />
          </mxGeometry>
        </mxCell>
        <mxCell id="-Dib-UJXwIFZfKIYvQwU-64" value="" style="endArrow=ERmany;html=1;rounded=0;entryX=0.5;entryY=0;entryDx=0;entryDy=0;startArrow=none;startFill=0;endFill=0;exitX=0.5;exitY=1;exitDx=0;exitDy=0;" edge="1" parent="1" source="-Dib-UJXwIFZfKIYvQwU-55" target="-Dib-UJXwIFZfKIYvQwU-15">
          <mxGeometry width="50" height="50" relative="1" as="geometry">
            <mxPoint x="333" y="690" as="sourcePoint" />
            <mxPoint x="344" y="510" as="targetPoint" />
          </mxGeometry>
        </mxCell>
        <mxCell id="-Dib-UJXwIFZfKIYvQwU-65" value="" style="endArrow=none;html=1;rounded=0;entryX=0.5;entryY=0;entryDx=0;entryDy=0;endFill=0;startArrow=ERmany;startFill=0;" edge="1" parent="1" target="-Dib-UJXwIFZfKIYvQwU-55">
          <mxGeometry width="50" height="50" relative="1" as="geometry">
            <mxPoint x="334" y="540" as="sourcePoint" />
            <mxPoint x="343" y="750" as="targetPoint" />
          </mxGeometry>
        </mxCell>
        <mxCell id="-Dib-UJXwIFZfKIYvQwU-66" value="" style="endArrow=classic;html=1;rounded=0;entryX=0;entryY=0.5;entryDx=0;entryDy=0;exitX=1;exitY=0.5;exitDx=0;exitDy=0;" edge="1" parent="1" source="-Dib-UJXwIFZfKIYvQwU-50" target="-Dib-UJXwIFZfKIYvQwU-52">
          <mxGeometry width="50" height="50" relative="1" as="geometry">
            <mxPoint x="330" y="540" as="sourcePoint" />
            <mxPoint x="380" y="490" as="targetPoint" />
          </mxGeometry>
        </mxCell>
        <mxCell id="-Dib-UJXwIFZfKIYvQwU-67" value="" style="endArrow=classic;html=1;rounded=0;entryX=0;entryY=0.5;entryDx=0;entryDy=0;exitX=1;exitY=0.5;exitDx=0;exitDy=0;" edge="1" parent="1" source="-Dib-UJXwIFZfKIYvQwU-50" target="-Dib-UJXwIFZfKIYvQwU-59">
          <mxGeometry width="50" height="50" relative="1" as="geometry">
            <mxPoint x="398" y="530" as="sourcePoint" />
            <mxPoint x="457" y="505" as="targetPoint" />
          </mxGeometry>
        </mxCell>
        <mxCell id="-Dib-UJXwIFZfKIYvQwU-72" value="type" style="ellipse;whiteSpace=wrap;html=1;" vertex="1" parent="1">
          <mxGeometry x="409.99999999999994" y="664" width="73.33" height="40" as="geometry" />
        </mxCell>
        <mxCell id="-Dib-UJXwIFZfKIYvQwU-73" value="" style="endArrow=classic;html=1;rounded=0;entryX=0;entryY=0;entryDx=0;entryDy=0;exitX=1;exitY=0.5;exitDx=0;exitDy=0;" edge="1" parent="1" target="-Dib-UJXwIFZfKIYvQwU-72">
          <mxGeometry width="50" height="50" relative="1" as="geometry">
            <mxPoint x="386.6700000000001" y="641" as="sourcePoint" />
            <mxPoint x="430" y="661" as="targetPoint" />
          </mxGeometry>
        </mxCell>
      </root>
    </mxGraphModel>
  </diagram>
</mxfile>
